<svg width="23" height="23" viewBox="0 0 23 23" fill="none" xmlns="http://www.w3.org/2000/svg">
<path d="M19.6038 10.0133C19.7019 10.567 19.7508 11.128 19.75 11.69C19.75 14.2 18.8347 16.3222 17.242 17.7587H17.2441C15.8512 19.0199 13.9365 19.75 11.6662 19.75C9.4341 19.75 7.2934 18.8808 5.71505 17.3337C4.13671 15.7866 3.25 13.6882 3.25 11.5003C3.25 9.31231 4.13671 7.21396 5.71505 5.66683C7.2934 4.11971 9.4341 3.25054 11.6662 3.25054C13.7555 3.22656 15.7732 3.99594 17.2967 5.39754L14.8938 7.75283C14.0253 6.94124 12.866 6.4968 11.6662 6.51537C9.47063 6.51537 7.60539 7.96733 6.94051 9.92251C6.58798 10.947 6.58798 12.0566 6.94051 13.0811H6.94367C7.6117 15.0332 9.47379 16.4852 11.6694 16.4852C12.8035 16.4852 13.7776 16.2006 14.533 15.6973H14.5298C14.9684 15.4125 15.3436 15.0435 15.6327 14.6127C15.9218 14.1818 16.1189 13.698 16.212 13.1904H11.6662V10.0143H19.6038V10.0133Z" fill="#104B0B"/>
</svg>
